<svg xmlns="http://www.w3.org/2000/svg" width="526" height="512" fill="none" viewBox="0 0 526 512" id="color-wheel">
  <g clip-path="url(#clip0_148_380)" mask="url(#mask_center)">
    <path fill="red" d="M255.832 55.8311C229.568 55.8311 203.56 61.0042 179.295 71.0551C155.03 81.1061 132.982 95.838 114.411 114.41L255.832 255.831L255.832 55.8311Z"></path>
    <path fill="#FA00FF" d="M255.828 55.8311C282.092 55.8311 308.1 61.0042 332.365 71.0551C356.63 81.1061 378.678 95.838 397.249 114.41L255.828 255.831L255.828 55.8311Z"></path>
    <path fill="#BDFF00" d="M255.828 455.831C229.564 455.831 203.557 450.658 179.291 440.607C155.026 430.556 132.978 415.824 114.407 397.252L255.828 255.831L255.828 455.831Z"></path>
    <path fill="#00FFFA" d="M255.828 455.831C282.092 455.831 308.1 450.658 332.365 440.607C356.63 430.556 378.678 415.824 397.249 397.252L255.828 255.831L255.828 455.831Z"></path>
    <path fill="#01B8FF" d="M455.828 255.831C455.828 282.095 450.655 308.103 440.604 332.368C430.553 356.633 415.821 378.681 397.249 397.252L255.828 255.831H455.828Z"></path>
    <path fill="#2300FF" d="M455.828 255.831C455.828 229.567 450.655 203.559 440.604 179.294C430.553 155.029 415.821 132.981 397.249 114.41L255.828 255.831H455.828Z"></path>
    <path fill="#FAFF00" d="M55.8281 255.831C55.8281 282.095 61.0013 308.103 71.0522 332.368C81.1031 356.633 95.8351 378.681 114.407 397.252L255.828 255.831H55.8281Z"></path>
    <path fill="#FF9300" d="M55.8281 255.831C55.8281 229.567 61.0013 203.559 71.0522 179.294C81.1031 155.029 95.8351 132.981 114.407 114.41L255.828 255.831H55.8281Z"></path>
  </g>
  <defs>
    <clipPath id="clip0_148_380">
      <rect width="526" height="512" fill="#fff"></rect>
    </clipPath>
  </defs>
</svg>
